<mxfile host="app.diagrams.net" modified="2024-02-02T23:42:40.516Z" agent="Mozilla/5.0 (Windows NT 10.0; Win64; x64) AppleWebKit/537.36 (KHTML, like Gecko) Chrome/121.0.0.0 Safari/537.36" etag="TywTycNYe36m92fT6sPK" version="23.1.1" type="github">
  <diagram name="Página-1" id="PZbxfM9SncY2pCMzYws2">
    <mxGraphModel dx="743" dy="390" grid="1" gridSize="10" guides="1" tooltips="1" connect="1" arrows="1" fold="1" page="1" pageScale="1" pageWidth="827" pageHeight="1169" math="0" shadow="0">
      <root>
        <mxCell id="0" />
        <mxCell id="1" parent="0" />
        <mxCell id="xPmQs6dkGCCImseQwBen-8" value="INSTRUTOR" style="whiteSpace=wrap;html=1;align=center;" parent="1" vertex="1">
          <mxGeometry x="40" y="140" width="100" height="40" as="geometry" />
        </mxCell>
        <mxCell id="xPmQs6dkGCCImseQwBen-9" value="MATRICULA" style="whiteSpace=wrap;html=1;align=center;" parent="1" vertex="1">
          <mxGeometry x="106" y="440" width="100" height="40" as="geometry" />
        </mxCell>
        <mxCell id="xPmQs6dkGCCImseQwBen-10" value="TREINO" style="whiteSpace=wrap;html=1;align=center;" parent="1" vertex="1">
          <mxGeometry x="470" y="230" width="100" height="40" as="geometry" />
        </mxCell>
        <mxCell id="xPmQs6dkGCCImseQwBen-11" value="EQUIPAMENTO" style="whiteSpace=wrap;html=1;align=center;" parent="1" vertex="1">
          <mxGeometry x="110" y="680" width="100" height="40" as="geometry" />
        </mxCell>
        <mxCell id="xPmQs6dkGCCImseQwBen-12" value="MANUTENÇÃO" style="whiteSpace=wrap;html=1;align=center;" parent="1" vertex="1">
          <mxGeometry x="460" y="680" width="100" height="40" as="geometry" />
        </mxCell>
        <mxCell id="xPmQs6dkGCCImseQwBen-13" value="CLIENTE" style="whiteSpace=wrap;html=1;align=center;" parent="1" vertex="1">
          <mxGeometry x="470" y="440" width="100" height="40" as="geometry" />
        </mxCell>
        <mxCell id="xPmQs6dkGCCImseQwBen-14" value="nome" style="ellipse;whiteSpace=wrap;html=1;align=center;" parent="1" vertex="1">
          <mxGeometry x="10" y="70" width="60" height="40" as="geometry" />
        </mxCell>
        <mxCell id="xPmQs6dkGCCImseQwBen-19" value="email" style="ellipse;whiteSpace=wrap;html=1;align=center;" parent="1" vertex="1">
          <mxGeometry x="80" y="40" width="60" height="40" as="geometry" />
        </mxCell>
        <mxCell id="xPmQs6dkGCCImseQwBen-20" value="telefone" style="ellipse;whiteSpace=wrap;html=1;align=center;" parent="1" vertex="1">
          <mxGeometry x="140" y="60" width="60" height="40" as="geometry" />
        </mxCell>
        <mxCell id="xPmQs6dkGCCImseQwBen-26" value="" style="endArrow=none;html=1;rounded=0;entryX=0.088;entryY=-0.02;entryDx=0;entryDy=0;entryPerimeter=0;" parent="1" source="xPmQs6dkGCCImseQwBen-14" target="xPmQs6dkGCCImseQwBen-8" edge="1">
          <mxGeometry relative="1" as="geometry">
            <mxPoint x="10" y="90" as="sourcePoint" />
            <mxPoint x="170" y="90" as="targetPoint" />
          </mxGeometry>
        </mxCell>
        <mxCell id="xPmQs6dkGCCImseQwBen-27" value="" style="endArrow=none;html=1;rounded=0;entryX=0.5;entryY=0;entryDx=0;entryDy=0;exitX=0.327;exitY=1.02;exitDx=0;exitDy=0;exitPerimeter=0;" parent="1" source="xPmQs6dkGCCImseQwBen-19" target="xPmQs6dkGCCImseQwBen-8" edge="1">
          <mxGeometry relative="1" as="geometry">
            <mxPoint x="100" y="60" as="sourcePoint" />
            <mxPoint x="124" y="130" as="targetPoint" />
            <Array as="points" />
          </mxGeometry>
        </mxCell>
        <mxCell id="xPmQs6dkGCCImseQwBen-28" value="" style="endArrow=none;html=1;rounded=0;exitX=0.333;exitY=0.92;exitDx=0;exitDy=0;exitPerimeter=0;entryX=0.75;entryY=0;entryDx=0;entryDy=0;" parent="1" source="xPmQs6dkGCCImseQwBen-20" target="xPmQs6dkGCCImseQwBen-8" edge="1">
          <mxGeometry relative="1" as="geometry">
            <mxPoint x="120" y="60" as="sourcePoint" />
            <mxPoint x="140" y="130" as="targetPoint" />
            <Array as="points" />
          </mxGeometry>
        </mxCell>
        <mxCell id="xPmQs6dkGCCImseQwBen-30" value="HORÁRIOS" style="whiteSpace=wrap;html=1;align=center;" parent="1" vertex="1">
          <mxGeometry x="40" y="330" width="100" height="40" as="geometry" />
        </mxCell>
        <mxCell id="xPmQs6dkGCCImseQwBen-31" value="ESPECIALIDADE" style="whiteSpace=wrap;html=1;align=center;" parent="1" vertex="1">
          <mxGeometry x="216" y="60" width="110" height="40" as="geometry" />
        </mxCell>
        <mxCell id="xPmQs6dkGCCImseQwBen-32" value="POSSUI" style="shape=rhombus;perimeter=rhombusPerimeter;whiteSpace=wrap;html=1;align=center;" parent="1" vertex="1">
          <mxGeometry x="30" y="230" width="120" height="60" as="geometry" />
        </mxCell>
        <mxCell id="xPmQs6dkGCCImseQwBen-33" value="POSSUI" style="shape=rhombus;perimeter=rhombusPerimeter;whiteSpace=wrap;html=1;align=center;" parent="1" vertex="1">
          <mxGeometry x="206" y="130" width="120" height="60" as="geometry" />
        </mxCell>
        <mxCell id="xPmQs6dkGCCImseQwBen-35" value="cod_matricula" style="ellipse;whiteSpace=wrap;html=1;align=center;" parent="1" vertex="1">
          <mxGeometry x="40" y="505" width="100" height="40" as="geometry" />
        </mxCell>
        <mxCell id="xPmQs6dkGCCImseQwBen-36" value="nome_atividade" style="ellipse;whiteSpace=wrap;html=1;align=center;" parent="1" vertex="1">
          <mxGeometry x="370" y="160" width="90" height="50" as="geometry" />
        </mxCell>
        <mxCell id="xPmQs6dkGCCImseQwBen-37" value="id" style="ellipse;whiteSpace=wrap;html=1;align=center;" parent="1" vertex="1">
          <mxGeometry x="230" y="10" width="50" height="30" as="geometry" />
        </mxCell>
        <mxCell id="xPmQs6dkGCCImseQwBen-44" value="" style="endArrow=none;html=1;rounded=0;entryX=1;entryY=0.5;entryDx=0;entryDy=0;exitX=0;exitY=0.5;exitDx=0;exitDy=0;" parent="1" source="xPmQs6dkGCCImseQwBen-33" target="xPmQs6dkGCCImseQwBen-8" edge="1">
          <mxGeometry relative="1" as="geometry">
            <mxPoint x="180" y="57" as="sourcePoint" />
            <mxPoint x="140" y="150" as="targetPoint" />
            <Array as="points" />
          </mxGeometry>
        </mxCell>
        <mxCell id="xPmQs6dkGCCImseQwBen-46" value="" style="endArrow=none;html=1;rounded=0;" parent="1" source="xPmQs6dkGCCImseQwBen-8" target="xPmQs6dkGCCImseQwBen-32" edge="1">
          <mxGeometry relative="1" as="geometry">
            <mxPoint x="117.5" y="160" as="sourcePoint" />
            <mxPoint x="62.5" y="253" as="targetPoint" />
            <Array as="points" />
          </mxGeometry>
        </mxCell>
        <mxCell id="xPmQs6dkGCCImseQwBen-47" value="" style="endArrow=none;html=1;rounded=0;" parent="1" edge="1">
          <mxGeometry relative="1" as="geometry">
            <mxPoint x="89.5" y="290" as="sourcePoint" />
            <mxPoint x="89.5" y="330" as="targetPoint" />
            <Array as="points" />
          </mxGeometry>
        </mxCell>
        <mxCell id="xPmQs6dkGCCImseQwBen-50" value="" style="endArrow=none;html=1;rounded=0;entryX=0.5;entryY=0;entryDx=0;entryDy=0;exitX=0.455;exitY=1;exitDx=0;exitDy=0;exitPerimeter=0;" parent="1" source="xPmQs6dkGCCImseQwBen-31" target="xPmQs6dkGCCImseQwBen-33" edge="1">
          <mxGeometry relative="1" as="geometry">
            <mxPoint x="380" y="159.5" as="sourcePoint" />
            <mxPoint x="320" y="159.5" as="targetPoint" />
            <Array as="points" />
          </mxGeometry>
        </mxCell>
        <mxCell id="xPmQs6dkGCCImseQwBen-52" value="MONTA" style="shape=rhombus;perimeter=rhombusPerimeter;whiteSpace=wrap;html=1;align=center;" parent="1" vertex="1">
          <mxGeometry x="230" y="220" width="120" height="60" as="geometry" />
        </mxCell>
        <mxCell id="xPmQs6dkGCCImseQwBen-53" value="" style="endArrow=none;html=1;rounded=0;entryX=1;entryY=1;entryDx=0;entryDy=0;" parent="1" edge="1">
          <mxGeometry relative="1" as="geometry">
            <mxPoint x="230" y="250" as="sourcePoint" />
            <mxPoint x="130" y="180" as="targetPoint" />
            <Array as="points">
              <mxPoint x="230" y="250" />
              <mxPoint x="190" y="220" />
            </Array>
          </mxGeometry>
        </mxCell>
        <mxCell id="xPmQs6dkGCCImseQwBen-55" value="" style="endArrow=none;html=1;rounded=0;entryX=1;entryY=0.5;entryDx=0;entryDy=0;exitX=0;exitY=0.5;exitDx=0;exitDy=0;" parent="1" source="xPmQs6dkGCCImseQwBen-10" target="xPmQs6dkGCCImseQwBen-52" edge="1">
          <mxGeometry relative="1" as="geometry">
            <mxPoint x="380" y="310" as="sourcePoint" />
            <mxPoint x="290" y="270" as="targetPoint" />
            <Array as="points" />
          </mxGeometry>
        </mxCell>
        <mxCell id="xPmQs6dkGCCImseQwBen-56" value="PERTENCE" style="shape=rhombus;perimeter=rhombusPerimeter;whiteSpace=wrap;html=1;align=center;" parent="1" vertex="1">
          <mxGeometry x="460" y="320" width="120" height="60" as="geometry" />
        </mxCell>
        <mxCell id="xPmQs6dkGCCImseQwBen-57" value="" style="endArrow=none;html=1;rounded=0;entryX=1;entryY=0.5;entryDx=0;entryDy=0;" parent="1" edge="1">
          <mxGeometry relative="1" as="geometry">
            <mxPoint x="520" y="440" as="sourcePoint" />
            <mxPoint x="520" y="380" as="targetPoint" />
            <Array as="points" />
          </mxGeometry>
        </mxCell>
        <mxCell id="xPmQs6dkGCCImseQwBen-59" value="" style="endArrow=none;html=1;rounded=0;entryX=0.5;entryY=1;entryDx=0;entryDy=0;exitX=0.5;exitY=0;exitDx=0;exitDy=0;" parent="1" source="xPmQs6dkGCCImseQwBen-56" target="xPmQs6dkGCCImseQwBen-10" edge="1">
          <mxGeometry relative="1" as="geometry">
            <mxPoint x="473.5" y="330" as="sourcePoint" />
            <mxPoint x="473.5" y="270" as="targetPoint" />
            <Array as="points" />
          </mxGeometry>
        </mxCell>
        <mxCell id="xPmQs6dkGCCImseQwBen-60" value="PERTENCE" style="shape=rhombus;perimeter=rhombusPerimeter;whiteSpace=wrap;html=1;align=center;" parent="1" vertex="1">
          <mxGeometry x="260" y="430" width="110" height="60" as="geometry" />
        </mxCell>
        <mxCell id="xPmQs6dkGCCImseQwBen-61" value="" style="endArrow=none;html=1;rounded=0;exitX=0;exitY=0.5;exitDx=0;exitDy=0;entryX=1;entryY=0.5;entryDx=0;entryDy=0;" parent="1" source="xPmQs6dkGCCImseQwBen-13" target="xPmQs6dkGCCImseQwBen-60" edge="1">
          <mxGeometry relative="1" as="geometry">
            <mxPoint x="423" y="460" as="sourcePoint" />
            <mxPoint x="370" y="460" as="targetPoint" />
            <Array as="points" />
          </mxGeometry>
        </mxCell>
        <mxCell id="xPmQs6dkGCCImseQwBen-63" value="" style="endArrow=none;html=1;rounded=0;" parent="1" edge="1">
          <mxGeometry relative="1" as="geometry">
            <mxPoint x="260" y="460" as="sourcePoint" />
            <mxPoint x="207" y="459.5" as="targetPoint" />
            <Array as="points" />
          </mxGeometry>
        </mxCell>
        <mxCell id="xPmQs6dkGCCImseQwBen-65" value="num_series" style="ellipse;whiteSpace=wrap;html=1;align=center;" parent="1" vertex="1">
          <mxGeometry x="440" y="120" width="80" height="50" as="geometry" />
        </mxCell>
        <mxCell id="xPmQs6dkGCCImseQwBen-66" value="num_repetições" style="ellipse;whiteSpace=wrap;html=1;align=center;" parent="1" vertex="1">
          <mxGeometry x="530" y="100" width="100" height="60" as="geometry" />
        </mxCell>
        <mxCell id="xPmQs6dkGCCImseQwBen-67" value="tempo_descanso" style="ellipse;whiteSpace=wrap;html=1;align=center;" parent="1" vertex="1">
          <mxGeometry x="610" y="160" width="110" height="50" as="geometry" />
        </mxCell>
        <mxCell id="xPmQs6dkGCCImseQwBen-68" value="" style="endArrow=none;html=1;rounded=0;exitX=0.5;exitY=1;exitDx=0;exitDy=0;entryX=0.75;entryY=0;entryDx=0;entryDy=0;" parent="1" source="xPmQs6dkGCCImseQwBen-66" target="xPmQs6dkGCCImseQwBen-10" edge="1">
          <mxGeometry relative="1" as="geometry">
            <mxPoint x="550" y="160" as="sourcePoint" />
            <mxPoint x="550" y="230" as="targetPoint" />
            <Array as="points" />
          </mxGeometry>
        </mxCell>
        <mxCell id="xPmQs6dkGCCImseQwBen-69" value="" style="endArrow=none;html=1;rounded=0;exitX=0.314;exitY=0.984;exitDx=0;exitDy=0;entryX=0.888;entryY=0;entryDx=0;entryDy=0;entryPerimeter=0;exitPerimeter=0;" parent="1" source="xPmQs6dkGCCImseQwBen-67" target="xPmQs6dkGCCImseQwBen-10" edge="1">
          <mxGeometry relative="1" as="geometry">
            <mxPoint x="595" y="165" as="sourcePoint" />
            <mxPoint x="590" y="255" as="targetPoint" />
            <Array as="points" />
          </mxGeometry>
        </mxCell>
        <mxCell id="xPmQs6dkGCCImseQwBen-70" value="" style="endArrow=none;html=1;rounded=0;entryX=0.384;entryY=-0.02;entryDx=0;entryDy=0;exitX=0.571;exitY=1;exitDx=0;exitDy=0;entryPerimeter=0;exitPerimeter=0;" parent="1" source="xPmQs6dkGCCImseQwBen-65" target="xPmQs6dkGCCImseQwBen-10" edge="1">
          <mxGeometry relative="1" as="geometry">
            <mxPoint x="485" y="140" as="sourcePoint" />
            <mxPoint x="480" y="230" as="targetPoint" />
            <Array as="points" />
          </mxGeometry>
        </mxCell>
        <mxCell id="xPmQs6dkGCCImseQwBen-71" value="" style="endArrow=none;html=1;rounded=0;exitX=1;exitY=1;exitDx=0;exitDy=0;entryX=0.12;entryY=0;entryDx=0;entryDy=0;entryPerimeter=0;" parent="1" source="xPmQs6dkGCCImseQwBen-36" target="xPmQs6dkGCCImseQwBen-10" edge="1">
          <mxGeometry relative="1" as="geometry">
            <mxPoint x="440" y="180" as="sourcePoint" />
            <mxPoint x="480" y="230" as="targetPoint" />
            <Array as="points" />
          </mxGeometry>
        </mxCell>
        <mxCell id="xPmQs6dkGCCImseQwBen-72" value="nome" style="ellipse;whiteSpace=wrap;html=1;align=center;" parent="1" vertex="1">
          <mxGeometry x="570" y="512.5" width="69" height="40" as="geometry" />
        </mxCell>
        <mxCell id="xPmQs6dkGCCImseQwBen-73" value="email" style="ellipse;whiteSpace=wrap;html=1;align=center;" parent="1" vertex="1">
          <mxGeometry x="491" y="520" width="69" height="40" as="geometry" />
        </mxCell>
        <mxCell id="xPmQs6dkGCCImseQwBen-74" value="telefone" style="ellipse;whiteSpace=wrap;html=1;align=center;" parent="1" vertex="1">
          <mxGeometry x="414" y="510" width="69" height="45" as="geometry" />
        </mxCell>
        <mxCell id="xPmQs6dkGCCImseQwBen-76" value="" style="endArrow=none;html=1;rounded=0;exitX=0.354;exitY=0.01;exitDx=0;exitDy=0;exitPerimeter=0;entryX=0.75;entryY=1;entryDx=0;entryDy=0;" parent="1" source="xPmQs6dkGCCImseQwBen-72" target="xPmQs6dkGCCImseQwBen-13" edge="1">
          <mxGeometry relative="1" as="geometry">
            <mxPoint x="610" y="540" as="sourcePoint" />
            <mxPoint x="550" y="480" as="targetPoint" />
            <Array as="points" />
          </mxGeometry>
        </mxCell>
        <mxCell id="xPmQs6dkGCCImseQwBen-77" value="" style="endArrow=none;html=1;rounded=0;exitX=0.664;exitY=0.053;exitDx=0;exitDy=0;exitPerimeter=0;entryX=0.344;entryY=0.97;entryDx=0;entryDy=0;entryPerimeter=0;" parent="1" source="xPmQs6dkGCCImseQwBen-74" target="xPmQs6dkGCCImseQwBen-13" edge="1">
          <mxGeometry relative="1" as="geometry">
            <mxPoint x="440" y="540" as="sourcePoint" />
            <mxPoint x="486" y="480" as="targetPoint" />
            <Array as="points" />
          </mxGeometry>
        </mxCell>
        <mxCell id="xPmQs6dkGCCImseQwBen-78" value="" style="endArrow=none;html=1;rounded=0;entryX=0.764;entryY=0.05;entryDx=0;entryDy=0;entryPerimeter=0;" parent="1" target="xPmQs6dkGCCImseQwBen-35" edge="1">
          <mxGeometry relative="1" as="geometry">
            <mxPoint x="120" y="480" as="sourcePoint" />
            <mxPoint x="120" y="520" as="targetPoint" />
            <Array as="points" />
          </mxGeometry>
        </mxCell>
        <mxCell id="xPmQs6dkGCCImseQwBen-79" value="" style="endArrow=none;html=1;rounded=0;exitX=0.312;exitY=1.013;exitDx=0;exitDy=0;entryX=0.324;entryY=0.03;entryDx=0;entryDy=0;entryPerimeter=0;exitPerimeter=0;" parent="1" source="xPmQs6dkGCCImseQwBen-37" target="xPmQs6dkGCCImseQwBen-31" edge="1">
          <mxGeometry relative="1" as="geometry">
            <mxPoint x="312.5" y="38.5" as="sourcePoint" />
            <mxPoint x="267.5" y="81.5" as="targetPoint" />
            <Array as="points" />
          </mxGeometry>
        </mxCell>
        <mxCell id="xPmQs6dkGCCImseQwBen-80" value="nome" style="ellipse;whiteSpace=wrap;html=1;align=center;" parent="1" vertex="1">
          <mxGeometry x="300" y="5" width="50" height="35" as="geometry" />
        </mxCell>
        <mxCell id="xPmQs6dkGCCImseQwBen-83" value="" style="endArrow=none;html=1;rounded=0;exitX=0.312;exitY=0.989;exitDx=0;exitDy=0;exitPerimeter=0;" parent="1" source="xPmQs6dkGCCImseQwBen-80" target="xPmQs6dkGCCImseQwBen-31" edge="1">
          <mxGeometry relative="1" as="geometry">
            <mxPoint x="332" y="40" as="sourcePoint" />
            <mxPoint x="350" y="99" as="targetPoint" />
            <Array as="points" />
          </mxGeometry>
        </mxCell>
        <mxCell id="xPmQs6dkGCCImseQwBen-85" value="" style="endArrow=none;html=1;rounded=0;exitX=0.5;exitY=0;exitDx=0;exitDy=0;entryX=0.5;entryY=1;entryDx=0;entryDy=0;" parent="1" source="xPmQs6dkGCCImseQwBen-73" target="xPmQs6dkGCCImseQwBen-13" edge="1">
          <mxGeometry relative="1" as="geometry">
            <mxPoint x="569" y="540" as="sourcePoint" />
            <mxPoint x="510" y="480" as="targetPoint" />
            <Array as="points" />
          </mxGeometry>
        </mxCell>
        <mxCell id="xPmQs6dkGCCImseQwBen-86" value="nome" style="ellipse;whiteSpace=wrap;html=1;align=center;" parent="1" vertex="1">
          <mxGeometry x="50" y="610" width="60" height="40" as="geometry" />
        </mxCell>
        <mxCell id="xPmQs6dkGCCImseQwBen-87" value="CATEGORIA_EQUIPAMENTO" style="whiteSpace=wrap;html=1;align=center;" parent="1" vertex="1">
          <mxGeometry x="70" y="880" width="190" height="40" as="geometry" />
        </mxCell>
        <mxCell id="xPmQs6dkGCCImseQwBen-88" value="data_compra" style="ellipse;whiteSpace=wrap;html=1;align=center;" parent="1" vertex="1">
          <mxGeometry x="120" y="600" width="80" height="40" as="geometry" />
        </mxCell>
        <mxCell id="xPmQs6dkGCCImseQwBen-89" value="vendendor" style="ellipse;whiteSpace=wrap;html=1;align=center;" parent="1" vertex="1">
          <mxGeometry x="210" y="610" width="74" height="40" as="geometry" />
        </mxCell>
        <mxCell id="xPmQs6dkGCCImseQwBen-90" value="" style="endArrow=none;html=1;rounded=0;entryX=0.5;entryY=0;entryDx=0;entryDy=0;exitX=0.42;exitY=1.03;exitDx=0;exitDy=0;exitPerimeter=0;" parent="1" source="xPmQs6dkGCCImseQwBen-88" target="xPmQs6dkGCCImseQwBen-11" edge="1">
          <mxGeometry relative="1" as="geometry">
            <mxPoint x="172" y="640" as="sourcePoint" />
            <mxPoint x="168" y="667" as="targetPoint" />
            <Array as="points" />
          </mxGeometry>
        </mxCell>
        <mxCell id="xPmQs6dkGCCImseQwBen-91" value="" style="endArrow=none;html=1;rounded=0;entryX=0.75;entryY=0;entryDx=0;entryDy=0;exitX=0;exitY=1;exitDx=0;exitDy=0;" parent="1" source="xPmQs6dkGCCImseQwBen-89" target="xPmQs6dkGCCImseQwBen-11" edge="1">
          <mxGeometry relative="1" as="geometry">
            <mxPoint x="200" y="650" as="sourcePoint" />
            <mxPoint x="206" y="719" as="targetPoint" />
            <Array as="points" />
          </mxGeometry>
        </mxCell>
        <mxCell id="xPmQs6dkGCCImseQwBen-92" value="" style="endArrow=none;html=1;rounded=0;entryX=0.092;entryY=0.02;entryDx=0;entryDy=0;entryPerimeter=0;exitX=0.74;exitY=0.98;exitDx=0;exitDy=0;exitPerimeter=0;" parent="1" source="xPmQs6dkGCCImseQwBen-86" target="xPmQs6dkGCCImseQwBen-11" edge="1">
          <mxGeometry relative="1" as="geometry">
            <mxPoint x="80" y="640" as="sourcePoint" />
            <mxPoint x="86" y="709" as="targetPoint" />
            <Array as="points" />
          </mxGeometry>
        </mxCell>
        <mxCell id="xPmQs6dkGCCImseQwBen-93" value="POSSUI" style="shape=rhombus;perimeter=rhombusPerimeter;whiteSpace=wrap;html=1;align=center;" parent="1" vertex="1">
          <mxGeometry x="100" y="770" width="120" height="60" as="geometry" />
        </mxCell>
        <mxCell id="xPmQs6dkGCCImseQwBen-94" value="" style="endArrow=none;html=1;rounded=0;entryX=0.5;entryY=0;entryDx=0;entryDy=0;exitX=0.5;exitY=1;exitDx=0;exitDy=0;" parent="1" source="xPmQs6dkGCCImseQwBen-11" target="xPmQs6dkGCCImseQwBen-93" edge="1">
          <mxGeometry relative="1" as="geometry">
            <mxPoint x="170" y="724" as="sourcePoint" />
            <mxPoint x="152" y="760" as="targetPoint" />
            <Array as="points" />
          </mxGeometry>
        </mxCell>
        <mxCell id="xPmQs6dkGCCImseQwBen-95" value="" style="endArrow=none;html=1;rounded=0;entryX=0.5;entryY=0;entryDx=0;entryDy=0;exitX=0.5;exitY=1;exitDx=0;exitDy=0;" parent="1" edge="1">
          <mxGeometry relative="1" as="geometry">
            <mxPoint x="159.5" y="830" as="sourcePoint" />
            <mxPoint x="159.5" y="880" as="targetPoint" />
            <Array as="points" />
          </mxGeometry>
        </mxCell>
        <mxCell id="xPmQs6dkGCCImseQwBen-96" value="id" style="ellipse;whiteSpace=wrap;html=1;align=center;" parent="1" vertex="1">
          <mxGeometry x="90" y="960" width="50" height="30" as="geometry" />
        </mxCell>
        <mxCell id="xPmQs6dkGCCImseQwBen-97" value="nome" style="ellipse;whiteSpace=wrap;html=1;align=center;" parent="1" vertex="1">
          <mxGeometry x="160" y="960" width="80" height="40" as="geometry" />
        </mxCell>
        <mxCell id="xPmQs6dkGCCImseQwBen-98" value="" style="endArrow=none;html=1;rounded=0;entryX=0.64;entryY=-0.013;entryDx=0;entryDy=0;exitX=0.32;exitY=1.03;exitDx=0;exitDy=0;exitPerimeter=0;entryPerimeter=0;" parent="1" source="xPmQs6dkGCCImseQwBen-87" target="xPmQs6dkGCCImseQwBen-96" edge="1">
          <mxGeometry relative="1" as="geometry">
            <mxPoint x="150" y="924" as="sourcePoint" />
            <mxPoint x="114" y="960" as="targetPoint" />
            <Array as="points" />
          </mxGeometry>
        </mxCell>
        <mxCell id="xPmQs6dkGCCImseQwBen-99" value="" style="endArrow=none;html=1;rounded=0;exitX=0.615;exitY=0.99;exitDx=0;exitDy=0;exitPerimeter=0;entryX=0.365;entryY=-0.01;entryDx=0;entryDy=0;entryPerimeter=0;" parent="1" source="xPmQs6dkGCCImseQwBen-87" target="xPmQs6dkGCCImseQwBen-97" edge="1">
          <mxGeometry relative="1" as="geometry">
            <mxPoint x="200" y="920" as="sourcePoint" />
            <mxPoint x="200" y="960" as="targetPoint" />
            <Array as="points" />
          </mxGeometry>
        </mxCell>
        <mxCell id="xPmQs6dkGCCImseQwBen-100" value="data_ultima_revisao" style="ellipse;whiteSpace=wrap;html=1;align=center;" parent="1" vertex="1">
          <mxGeometry x="600" y="670" width="120" height="60" as="geometry" />
        </mxCell>
        <mxCell id="xPmQs6dkGCCImseQwBen-101" value="" style="endArrow=none;html=1;rounded=0;exitX=1;exitY=0.5;exitDx=0;exitDy=0;entryX=0;entryY=0.5;entryDx=0;entryDy=0;" parent="1" source="xPmQs6dkGCCImseQwBen-12" target="xPmQs6dkGCCImseQwBen-100" edge="1">
          <mxGeometry relative="1" as="geometry">
            <mxPoint x="530" y="770" as="sourcePoint" />
            <mxPoint x="532" y="810" as="targetPoint" />
            <Array as="points" />
          </mxGeometry>
        </mxCell>
        <mxCell id="xPmQs6dkGCCImseQwBen-102" value="REALIZA" style="shape=rhombus;perimeter=rhombusPerimeter;whiteSpace=wrap;html=1;align=center;" parent="1" vertex="1">
          <mxGeometry x="296" y="675" width="105" height="50" as="geometry" />
        </mxCell>
        <mxCell id="xPmQs6dkGCCImseQwBen-103" value="" style="endArrow=none;html=1;rounded=0;entryX=0;entryY=0.5;entryDx=0;entryDy=0;exitX=1;exitY=0.5;exitDx=0;exitDy=0;" parent="1" source="xPmQs6dkGCCImseQwBen-102" target="xPmQs6dkGCCImseQwBen-12" edge="1">
          <mxGeometry relative="1" as="geometry">
            <mxPoint x="400" y="700" as="sourcePoint" />
            <mxPoint x="441" y="699.5" as="targetPoint" />
            <Array as="points" />
          </mxGeometry>
        </mxCell>
        <mxCell id="xPmQs6dkGCCImseQwBen-104" value="" style="endArrow=none;html=1;rounded=0;entryX=0;entryY=0.5;entryDx=0;entryDy=0;exitX=1;exitY=0.5;exitDx=0;exitDy=0;" parent="1" source="xPmQs6dkGCCImseQwBen-11" target="xPmQs6dkGCCImseQwBen-102" edge="1">
          <mxGeometry relative="1" as="geometry">
            <mxPoint x="236.5" y="699.5" as="sourcePoint" />
            <mxPoint x="295.5" y="699.5" as="targetPoint" />
            <Array as="points" />
          </mxGeometry>
        </mxCell>
        <mxCell id="Otpv8TJiVxTKEcu3kqkm-50" value="(n, n)" style="text;html=1;strokeColor=none;fillColor=none;align=center;verticalAlign=middle;whiteSpace=wrap;rounded=0;" vertex="1" parent="1">
          <mxGeometry x="80" y="180" width="60" height="30" as="geometry" />
        </mxCell>
        <mxCell id="Otpv8TJiVxTKEcu3kqkm-51" value="(n, n)" style="text;html=1;strokeColor=none;fillColor=none;align=center;verticalAlign=middle;whiteSpace=wrap;rounded=0;" vertex="1" parent="1">
          <mxGeometry x="80" y="300" width="60" height="30" as="geometry" />
        </mxCell>
        <mxCell id="Otpv8TJiVxTKEcu3kqkm-52" value="(n, n)" style="text;html=1;strokeColor=none;fillColor=none;align=center;verticalAlign=middle;whiteSpace=wrap;rounded=0;" vertex="1" parent="1">
          <mxGeometry x="135" y="130" width="60" height="30" as="geometry" />
        </mxCell>
        <mxCell id="Otpv8TJiVxTKEcu3kqkm-53" value="(n, n)" style="text;html=1;strokeColor=none;fillColor=none;align=center;verticalAlign=middle;whiteSpace=wrap;rounded=0;" vertex="1" parent="1">
          <mxGeometry x="260" y="100" width="60" height="30" as="geometry" />
        </mxCell>
        <mxCell id="Otpv8TJiVxTKEcu3kqkm-54" value="(1, n)" style="text;html=1;strokeColor=none;fillColor=none;align=center;verticalAlign=middle;whiteSpace=wrap;rounded=0;" vertex="1" parent="1">
          <mxGeometry x="160" y="190" width="60" height="30" as="geometry" />
        </mxCell>
        <mxCell id="Otpv8TJiVxTKEcu3kqkm-55" value="(n, n)" style="text;html=1;strokeColor=none;fillColor=none;align=center;verticalAlign=middle;whiteSpace=wrap;rounded=0;" vertex="1" parent="1">
          <mxGeometry x="370" y="220" width="60" height="30" as="geometry" />
        </mxCell>
        <mxCell id="Otpv8TJiVxTKEcu3kqkm-56" value="(n, n)" style="text;html=1;strokeColor=none;fillColor=none;align=center;verticalAlign=middle;whiteSpace=wrap;rounded=0;" vertex="1" parent="1">
          <mxGeometry x="470" y="290" width="60" height="30" as="geometry" />
        </mxCell>
        <mxCell id="Otpv8TJiVxTKEcu3kqkm-57" value="(n, n)" style="text;html=1;strokeColor=none;fillColor=none;align=center;verticalAlign=middle;whiteSpace=wrap;rounded=0;" vertex="1" parent="1">
          <mxGeometry x="470" y="400" width="60" height="30" as="geometry" />
        </mxCell>
        <mxCell id="Otpv8TJiVxTKEcu3kqkm-58" value="(1, 1)" style="text;html=1;strokeColor=none;fillColor=none;align=center;verticalAlign=middle;whiteSpace=wrap;rounded=0;" vertex="1" parent="1">
          <mxGeometry x="400" y="430" width="60" height="30" as="geometry" />
        </mxCell>
        <mxCell id="Otpv8TJiVxTKEcu3kqkm-59" value="(1, 1)" style="text;html=1;strokeColor=none;fillColor=none;align=center;verticalAlign=middle;whiteSpace=wrap;rounded=0;" vertex="1" parent="1">
          <mxGeometry x="210" y="430" width="60" height="30" as="geometry" />
        </mxCell>
        <mxCell id="Otpv8TJiVxTKEcu3kqkm-60" value="(n, n)" style="text;html=1;strokeColor=none;fillColor=none;align=center;verticalAlign=middle;whiteSpace=wrap;rounded=0;" vertex="1" parent="1">
          <mxGeometry x="224" y="675" width="60" height="30" as="geometry" />
        </mxCell>
        <mxCell id="Otpv8TJiVxTKEcu3kqkm-61" value="(n, n)" style="text;html=1;strokeColor=none;fillColor=none;align=center;verticalAlign=middle;whiteSpace=wrap;rounded=0;" vertex="1" parent="1">
          <mxGeometry x="400" y="675" width="60" height="30" as="geometry" />
        </mxCell>
        <mxCell id="Otpv8TJiVxTKEcu3kqkm-62" value="(n, n)" style="text;html=1;strokeColor=none;fillColor=none;align=center;verticalAlign=middle;whiteSpace=wrap;rounded=0;" vertex="1" parent="1">
          <mxGeometry x="150" y="730" width="60" height="30" as="geometry" />
        </mxCell>
        <mxCell id="Otpv8TJiVxTKEcu3kqkm-63" value="(n, n)" style="text;html=1;strokeColor=none;fillColor=none;align=center;verticalAlign=middle;whiteSpace=wrap;rounded=0;" vertex="1" parent="1">
          <mxGeometry x="150" y="840" width="60" height="30" as="geometry" />
        </mxCell>
        <mxCell id="Otpv8TJiVxTKEcu3kqkm-64" value="data_inicio" style="ellipse;whiteSpace=wrap;html=1;align=center;" vertex="1" parent="1">
          <mxGeometry x="150" y="505" width="100" height="40" as="geometry" />
        </mxCell>
        <mxCell id="Otpv8TJiVxTKEcu3kqkm-65" value="" style="endArrow=none;html=1;rounded=0;entryX=0.387;entryY=0.054;entryDx=0;entryDy=0;entryPerimeter=0;exitX=0.654;exitY=1.023;exitDx=0;exitDy=0;exitPerimeter=0;" edge="1" parent="1" source="xPmQs6dkGCCImseQwBen-9" target="Otpv8TJiVxTKEcu3kqkm-64">
          <mxGeometry relative="1" as="geometry">
            <mxPoint x="163" y="490" as="sourcePoint" />
            <mxPoint x="159" y="517" as="targetPoint" />
            <Array as="points" />
          </mxGeometry>
        </mxCell>
      </root>
    </mxGraphModel>
  </diagram>
</mxfile>
